<mxfile host="Electron" agent="Mozilla/5.0 (Windows NT 10.0; Win64; x64) AppleWebKit/537.36 (KHTML, like Gecko) draw.io/25.0.2 Chrome/128.0.6613.186 Electron/32.2.5 Safari/537.36" version="25.0.2">
  <diagram name="第 1 页" id="8CtCuOsys3hR2p4QYqbM">
    <mxGraphModel dx="1221" dy="823" grid="1" gridSize="10" guides="1" tooltips="1" connect="1" arrows="1" fold="1" page="1" pageScale="1" pageWidth="827" pageHeight="1169" math="0" shadow="0">
      <root>
        <mxCell id="0" />
        <mxCell id="1" parent="0" />
        <mxCell id="Sqm4q17-4cD9rXe7hXDx-5" value="" style="edgeStyle=orthogonalEdgeStyle;rounded=0;orthogonalLoop=1;jettySize=auto;html=1;" parent="1" source="AAzNbXR31eo6BCxiC4Rg-1" target="Sqm4q17-4cD9rXe7hXDx-2" edge="1">
          <mxGeometry relative="1" as="geometry" />
        </mxCell>
        <mxCell id="AAzNbXR31eo6BCxiC4Rg-1" value="&lt;font style=&quot;font-size: 14px;&quot;&gt;程序开始&lt;/font&gt;" style="ellipse;whiteSpace=wrap;html=1;" parent="1" vertex="1">
          <mxGeometry x="360" y="160" width="120" height="40" as="geometry" />
        </mxCell>
        <mxCell id="zPffARQcVFFwAuHFskO3-3" value="" style="edgeStyle=orthogonalEdgeStyle;rounded=0;orthogonalLoop=1;jettySize=auto;html=1;" edge="1" parent="1" source="Sqm4q17-4cD9rXe7hXDx-2" target="zPffARQcVFFwAuHFskO3-2">
          <mxGeometry relative="1" as="geometry" />
        </mxCell>
        <mxCell id="Sqm4q17-4cD9rXe7hXDx-2" value="&lt;font style=&quot;font-size: 14px;&quot;&gt;输入整型&lt;/font&gt;" style="shape=parallelogram;perimeter=parallelogramPerimeter;whiteSpace=wrap;html=1;fixedSize=1;" parent="1" vertex="1">
          <mxGeometry x="360" y="240" width="120" height="40" as="geometry" />
        </mxCell>
        <mxCell id="zPffARQcVFFwAuHFskO3-5" value="" style="edgeStyle=orthogonalEdgeStyle;rounded=0;orthogonalLoop=1;jettySize=auto;html=1;" edge="1" parent="1" source="zPffARQcVFFwAuHFskO3-2" target="zPffARQcVFFwAuHFskO3-4">
          <mxGeometry relative="1" as="geometry" />
        </mxCell>
        <mxCell id="zPffARQcVFFwAuHFskO3-6" value="&lt;font style=&quot;font-size: 14px;&quot;&gt;是&lt;/font&gt;" style="edgeLabel;html=1;align=center;verticalAlign=middle;resizable=0;points=[];" vertex="1" connectable="0" parent="zPffARQcVFFwAuHFskO3-5">
          <mxGeometry x="-0.8" relative="1" as="geometry">
            <mxPoint x="10" y="5" as="offset" />
          </mxGeometry>
        </mxCell>
        <mxCell id="zPffARQcVFFwAuHFskO3-13" style="edgeStyle=orthogonalEdgeStyle;rounded=0;orthogonalLoop=1;jettySize=auto;html=1;exitX=0;exitY=0.5;exitDx=0;exitDy=0;entryX=0.5;entryY=0;entryDx=0;entryDy=0;" edge="1" parent="1" source="zPffARQcVFFwAuHFskO3-2" target="zPffARQcVFFwAuHFskO3-11">
          <mxGeometry relative="1" as="geometry">
            <Array as="points">
              <mxPoint x="320" y="340" />
              <mxPoint x="320" y="460" />
              <mxPoint x="420" y="460" />
            </Array>
          </mxGeometry>
        </mxCell>
        <mxCell id="zPffARQcVFFwAuHFskO3-14" value="&lt;font style=&quot;font-size: 14px;&quot;&gt;否&lt;/font&gt;" style="edgeLabel;html=1;align=center;verticalAlign=middle;resizable=0;points=[];" vertex="1" connectable="0" parent="zPffARQcVFFwAuHFskO3-13">
          <mxGeometry x="-0.8262" y="3" relative="1" as="geometry">
            <mxPoint x="4" y="-13" as="offset" />
          </mxGeometry>
        </mxCell>
        <mxCell id="zPffARQcVFFwAuHFskO3-2" value="i = 31&lt;br&gt;i &amp;gt;= 0" style="rhombus;whiteSpace=wrap;html=1;fontSize=14;" vertex="1" parent="1">
          <mxGeometry x="360" y="310" width="120" height="60" as="geometry" />
        </mxCell>
        <mxCell id="zPffARQcVFFwAuHFskO3-9" style="edgeStyle=orthogonalEdgeStyle;rounded=0;orthogonalLoop=1;jettySize=auto;html=1;exitX=1;exitY=0.5;exitDx=0;exitDy=0;entryX=0.5;entryY=1;entryDx=0;entryDy=0;" edge="1" parent="1" source="zPffARQcVFFwAuHFskO3-4" target="zPffARQcVFFwAuHFskO3-8">
          <mxGeometry relative="1" as="geometry" />
        </mxCell>
        <mxCell id="zPffARQcVFFwAuHFskO3-4" value="输出 (k &amp;gt;&amp;gt; i) &amp;amp; 1" style="shape=parallelogram;perimeter=parallelogramPerimeter;whiteSpace=wrap;html=1;fixedSize=1;fontSize=14;" vertex="1" parent="1">
          <mxGeometry x="350" y="400" width="140" height="40" as="geometry" />
        </mxCell>
        <mxCell id="zPffARQcVFFwAuHFskO3-10" style="edgeStyle=orthogonalEdgeStyle;rounded=0;orthogonalLoop=1;jettySize=auto;html=1;exitX=0.5;exitY=0;exitDx=0;exitDy=0;" edge="1" parent="1" source="zPffARQcVFFwAuHFskO3-8">
          <mxGeometry relative="1" as="geometry">
            <mxPoint x="420" y="300" as="targetPoint" />
            <Array as="points">
              <mxPoint x="540" y="300" />
              <mxPoint x="421" y="300" />
            </Array>
          </mxGeometry>
        </mxCell>
        <mxCell id="zPffARQcVFFwAuHFskO3-8" value="&lt;font style=&quot;font-size: 14px;&quot;&gt;i --&lt;/font&gt;" style="rounded=0;whiteSpace=wrap;html=1;" vertex="1" parent="1">
          <mxGeometry x="520" y="320" width="40" height="40" as="geometry" />
        </mxCell>
        <mxCell id="zPffARQcVFFwAuHFskO3-11" value="&lt;font style=&quot;font-size: 14px;&quot;&gt;程序结束&lt;/font&gt;" style="ellipse;whiteSpace=wrap;html=1;" vertex="1" parent="1">
          <mxGeometry x="360" y="480" width="120" height="40" as="geometry" />
        </mxCell>
      </root>
    </mxGraphModel>
  </diagram>
</mxfile>
